<svg width="56" height="57" viewBox="0 0 56 57" fill="none" xmlns="http://www.w3.org/2000/svg">
<ellipse cx="28.3294" cy="19.6129" rx="8.56471" ry="9.19355" fill="white"/>
<path d="M36.8222 41.6774C40.1367 41.6774 42.9294 38.8997 41.7203 35.8137C40.9919 33.9547 39.9242 32.2655 38.5783 30.8427C37.2324 29.4199 35.6346 28.2912 33.8761 27.5212C32.1176 26.7512 30.2328 26.3548 28.3294 26.3548C26.426 26.3548 24.5413 26.7512 22.7828 27.5212C21.0243 28.2912 19.4265 29.4199 18.0806 30.8427C16.7347 32.2655 15.667 33.9547 14.9386 35.8137C13.7295 38.8997 16.5222 41.6774 19.8366 41.6774L28.3294 41.6774H36.8222Z" fill="white"/>
<path d="M53.5 26.6613C53.5 39.8912 42.2001 50.8226 28 50.8226C13.7999 50.8226 2.5 39.8912 2.5 26.6613C2.5 13.4314 13.7999 2.5 28 2.5C42.2001 2.5 53.5 13.4314 53.5 26.6613Z" stroke="white" stroke-width="5"/>
</svg>
